<svg xmlns="http://www.w3.org/2000/svg" width="960" height="640" viewBox="0 0 960 640" preserveAspectRatio="xMidYMid slice">
  <defs>
    <linearGradient id="bg" x1="0%" y1="0%" x2="100%" y2="100%">
      <stop offset="0%" stop-color="#1e3a8a"/>
      <stop offset="50%" stop-color="#312e81"/>
      <stop offset="100%" stop-color="#0f172a"/>
    </linearGradient>
    <linearGradient id="card" x1="0%" y1="0%" x2="0%" y2="100%">
      <stop offset="0%" stop-color="#64748b" stop-opacity="0.45"/>
      <stop offset="100%" stop-color="#334155" stop-opacity="0.35"/>
    </linearGradient>
  </defs>
  <rect width="960" height="640" fill="url(#bg)"/>
  <!-- abstract dashboard -->
  <rect x="32" y="32" width="200" height="576" rx="12" fill="url(#card)" stroke="#94a3b8" stroke-opacity="0.2"/>
  <rect x="252" y="32" width="676" height="72" rx="10" fill="#475569" fill-opacity="0.4"/>
  <rect x="252" y="120" width="420" height="220" rx="10" fill="#3b82f6" fill-opacity="0.15" stroke="#60a5fa" stroke-opacity="0.25"/>
  <rect x="688" y="120" width="240" height="100" rx="10" fill="#a855f7" fill-opacity="0.12"/>
  <rect x="688" y="232" width="240" height="108" rx="10" fill="#22c55e" fill-opacity="0.1"/>
  <rect x="252" y="356" width="320" height="252" rx="10" fill="#475569" fill-opacity="0.35"/>
  <rect x="588" y="356" width="340" height="120" rx="10" fill="#64748b" fill-opacity="0.3"/>
  <rect x="588" y="488" width="340" height="120" rx="10" fill="#6366f1" fill-opacity="0.12"/>
  <circle cx="292" cy="160" r="6" fill="#fbbf24" fill-opacity="0.8"/>
  <rect x="308" y="154" width="120" height="12" rx="4" fill="#e2e8f0" fill-opacity="0.35"/>
  <rect x="308" y="174" width="200" height="8" rx="3" fill="#cbd5e1" fill-opacity="0.2"/>
</svg>
